<?xml version="1.0" encoding="UTF-8" ?>
<!DOCTYPE svg PUBLIC "-//W3C//DTD SVG 1.1//EN" "http://www.w3.org/Graphics/SVG/1.1/DTD/svg11.dtd">
<svg width="512pt" height="512pt" viewBox="0 0 512 512" version="1.1" xmlns="http://www.w3.org/2000/svg">
<g id="#2196f3ff">
<path fill="#2196f3" opacity="1.00" d=" M 32.00 0.00 L 480.00 0.00 C 466.37 153.61 452.75 307.23 439.12 460.84 C 378.09 477.90 317.05 494.93 256.02 512.00 L 256.01 512.00 C 194.94 494.93 133.88 477.88 72.82 460.81 C 59.20 307.20 45.61 153.60 32.00 0.00 M 114.19 94.22 C 115.49 112.03 116.45 129.88 117.98 147.67 C 190.90 147.35 263.83 147.23 336.75 147.00 C 335.33 166.14 333.93 185.27 332.49 204.40 C 262.82 205.24 193.15 206.04 123.48 206.88 C 125.34 224.75 127.21 242.63 129.10 260.50 C 195.32 260.33 261.53 260.13 327.75 259.97 C 324.78 286.15 322.17 312.37 318.97 338.52 C 297.92 343.96 276.99 349.96 255.92 355.34 C 234.90 350.00 214.04 343.97 193.03 338.56 C 191.27 322.86 190.15 307.10 188.62 291.38 C 169.65 291.36 150.68 291.38 131.70 291.37 C 134.66 321.60 137.12 351.87 139.91 382.12 C 178.58 392.76 217.18 403.69 255.90 414.12 C 294.67 403.68 333.34 392.76 372.06 382.12 C 380.67 286.15 389.29 190.19 397.81 94.22 C 303.27 94.22 208.73 94.22 114.19 94.22 Z" />
</g>
<g id="#fafafaff">
<path fill="#fafafa" opacity="1.00" d=" M 114.19 94.22 C 208.73 94.22 303.27 94.22 397.81 94.22 C 389.29 190.19 380.67 286.15 372.06 382.12 C 333.34 392.76 294.67 403.68 255.90 414.12 C 217.18 403.69 178.58 392.76 139.91 382.12 C 137.12 351.87 134.66 321.60 131.70 291.37 C 150.68 291.38 169.65 291.36 188.62 291.38 C 190.15 307.10 191.27 322.86 193.03 338.56 C 214.04 343.97 234.90 350.00 255.92 355.34 C 276.99 349.96 297.92 343.96 318.97 338.52 C 322.17 312.37 324.78 286.15 327.75 259.97 C 261.53 260.13 195.32 260.33 129.10 260.50 C 127.21 242.63 125.34 224.75 123.48 206.88 C 193.15 206.04 262.82 205.24 332.49 204.40 C 333.93 185.27 335.33 166.14 336.75 147.00 C 263.83 147.23 190.90 147.35 117.98 147.67 C 116.45 129.88 115.49 112.03 114.19 94.22 Z" />
</g>
</svg>
