<?xml version="1.0" encoding="UTF-8" ?>
<!DOCTYPE svg PUBLIC "-//W3C//DTD SVG 1.1//EN" "http://www.w3.org/Graphics/SVG/1.1/DTD/svg11.dtd">
<svg width="512pt" height="512pt" viewBox="0 0 512 512" version="1.1" xmlns="http://www.w3.org/2000/svg">
<g id="#f05233ff">
<path fill="#f05233" opacity="1.00" d=" M 249.41 0.00 L 262.47 0.00 C 303.93 1.17 345.19 12.19 381.27 32.74 C 429.70 59.85 468.89 103.15 490.88 154.13 C 504.41 184.98 511.43 218.58 512.00 252.24 L 512.00 260.74 C 511.22 298.55 502.18 336.21 485.23 370.04 C 468.42 403.63 444.23 433.52 414.73 456.79 C 384.47 480.82 348.71 497.90 310.93 506.08 C 295.05 509.69 278.79 511.32 262.55 512.00 L 249.50 512.00 C 204.14 510.75 159.16 497.44 120.69 473.33 C 67.79 440.41 27.48 387.69 10.20 327.76 C 3.82 306.01 0.52 283.40 0.00 260.74 L 0.00 251.26 C 0.90 200.48 17.20 150.02 46.71 108.64 C 66.06 81.08 90.95 57.46 119.43 39.51 C 158.08 14.79 203.60 1.30 249.41 0.00 M 252.82 145.02 C 251.17 153.14 255.03 161.84 261.92 166.34 C 262.48 168.78 264.76 170.06 266.44 171.67 C 273.61 178.16 280.15 185.32 287.45 191.67 C 277.01 191.70 266.57 191.50 256.14 191.57 C 256.37 195.46 256.50 199.36 256.56 203.26 C 251.42 199.51 247.90 193.93 242.53 190.51 L 242.53 190.16 C 233.14 194.03 223.11 196.47 212.94 196.79 C 210.89 196.79 209.23 195.32 207.40 194.61 C 188.14 185.34 162.79 190.67 149.68 207.78 C 140.33 219.77 137.80 236.57 142.82 250.88 C 146.35 261.43 153.27 271.65 163.99 275.84 C 154.79 281.08 153.06 293.63 155.99 302.97 C 157.26 307.69 160.82 311.09 164.24 314.33 C 156.70 316.93 149.27 320.91 144.47 327.48 C 138.42 335.59 137.56 346.53 139.82 356.14 C 141.88 365.11 148.42 372.53 156.42 376.83 C 157.54 379.47 159.86 381.23 161.82 383.22 C 188.73 409.97 215.57 436.80 242.50 463.54 C 243.61 464.87 245.68 465.43 246.85 463.83 C 304.32 406.32 361.84 348.85 419.32 291.35 C 427.24 283.11 435.79 275.47 443.35 266.91 C 439.75 261.87 434.82 258.00 430.64 253.47 C 412.18 234.89 393.70 216.34 375.26 197.74 C 373.44 196.24 373.48 193.82 373.25 191.68 C 371.66 191.67 370.07 191.66 368.49 191.66 C 366.60 188.58 363.78 186.27 361.29 183.70 C 355.94 178.52 350.95 172.94 345.36 168.02 C 336.35 168.12 327.35 168.05 318.35 168.05 C 311.47 160.18 303.62 153.19 296.39 145.64 C 293.77 143.35 291.84 140.08 288.48 138.79 C 285.48 133.02 279.72 128.43 273.08 128.05 C 263.39 127.77 254.40 135.53 252.82 145.02 Z" />
</g>
<g id="#ffffffff">
<path fill="#ffffff" opacity="1.00" d=" M 252.82 145.02 C 254.40 135.53 263.39 127.77 273.08 128.05 C 279.72 128.43 285.48 133.02 288.48 138.79 C 290.39 142.93 291.48 147.58 290.68 152.14 C 289.52 159.92 283.80 167.23 275.99 169.11 C 271.16 170.47 266.10 168.79 261.92 166.34 C 255.03 161.84 251.17 153.14 252.82 145.02 Z" />
<path fill="#ffffff" opacity="1.00" d=" M 313.30 168.07 C 314.98 168.06 316.67 168.06 318.35 168.05 C 327.35 168.05 336.35 168.12 345.36 168.02 C 344.52 175.87 344.23 183.78 344.50 191.68 C 352.50 191.69 360.50 191.70 368.49 191.66 C 370.07 191.66 371.66 191.67 373.25 191.68 C 373.33 200.72 373.25 209.76 373.28 218.80 C 363.73 218.35 354.17 218.34 344.62 218.15 C 344.36 234.08 344.60 250.02 344.51 265.95 C 344.53 271.72 344.31 277.82 346.93 283.13 C 348.39 286.24 351.46 288.55 354.91 288.88 C 361.36 289.60 367.76 287.52 373.34 284.41 C 373.31 293.70 373.33 303.00 373.35 312.29 C 362.45 317.61 349.84 319.18 337.95 316.89 C 330.24 315.41 323.34 310.34 319.77 303.32 C 314.63 293.41 314.15 281.93 313.99 271.00 C 313.89 253.41 314.03 235.82 313.93 218.23 C 309.49 217.97 305.04 218.17 300.65 218.85 C 300.67 209.80 300.64 200.75 300.67 191.71 C 305.15 191.69 309.63 191.69 314.10 191.70 C 314.45 183.81 314.18 175.91 313.30 168.07 Z" />
<path fill="#ffffff" opacity="1.00" d=" M 149.68 207.78 C 162.79 190.67 188.14 185.34 207.40 194.61 C 209.23 195.32 210.89 196.79 212.94 196.79 C 223.11 196.47 233.14 194.03 242.53 190.16 L 242.53 190.51 C 242.47 199.97 242.49 209.43 242.52 218.89 C 238.90 220.20 235.23 221.36 231.50 222.28 C 238.05 242.42 228.77 266.96 209.54 276.50 C 203.77 279.87 197.02 280.51 190.85 282.77 C 182.58 285.87 182.31 299.16 190.30 302.80 C 202.87 309.22 218.02 309.19 229.89 317.26 C 236.55 321.58 240.74 329.16 241.24 337.05 C 242.00 348.56 239.83 361.09 231.92 369.95 C 224.52 378.34 213.28 382.00 202.48 383.33 C 186.98 384.98 170.52 384.07 156.42 376.83 C 148.42 372.53 141.88 365.11 139.82 356.14 C 137.56 346.53 138.42 335.59 144.47 327.48 C 149.27 320.91 156.70 316.93 164.24 314.33 C 160.82 311.09 157.26 307.69 155.99 302.97 C 153.06 293.63 154.79 281.08 163.99 275.84 C 153.27 271.65 146.35 261.43 142.82 250.88 C 137.80 236.57 140.33 219.77 149.68 207.78 M 182.33 216.46 C 175.65 218.66 171.43 225.33 170.58 232.08 C 169.87 237.98 170.14 244.46 173.48 249.58 C 175.97 253.40 180.46 255.44 184.90 255.86 C 190.08 256.47 195.94 255.69 199.78 251.83 C 203.41 248.21 204.40 242.89 204.64 237.98 C 204.95 231.88 203.53 225.34 199.25 220.77 C 195.08 216.20 188.19 214.43 182.33 216.46 M 181.53 330.71 C 176.68 331.48 171.43 333.46 168.93 338.00 C 166.16 343.22 166.67 350.62 171.49 354.49 C 176.41 358.44 183.02 359.04 189.09 359.36 C 195.15 359.49 201.65 359.29 207.01 356.11 C 214.97 351.39 215.13 337.63 206.62 333.37 C 198.94 329.51 189.86 329.67 181.53 330.71 Z" />
<path fill="#ffffff" opacity="1.00" d=" M 256.14 191.57 C 266.57 191.50 277.01 191.70 287.45 191.67 C 286.66 209.11 286.99 226.57 286.80 244.01 C 286.88 268.05 286.65 292.09 287.48 316.12 C 277.04 316.12 266.61 316.13 256.17 316.10 C 257.19 278.50 257.01 240.87 256.56 203.26 C 256.50 199.36 256.37 195.46 256.14 191.57 Z" />
</g>
<g id="#c9442bff">
<path fill="#c9442b" opacity="1.00" d=" M 288.48 138.79 C 291.84 140.08 293.77 143.35 296.39 145.64 C 303.62 153.19 311.47 160.18 318.35 168.05 C 316.67 168.06 314.98 168.06 313.30 168.07 C 314.18 175.91 314.45 183.81 314.10 191.70 C 309.63 191.69 305.15 191.69 300.67 191.71 C 300.64 200.75 300.67 209.80 300.65 218.85 C 305.04 218.17 309.49 217.97 313.93 218.23 C 314.03 235.82 313.89 253.41 313.99 271.00 C 314.15 281.93 314.63 293.41 319.77 303.32 C 323.34 310.34 330.24 315.41 337.95 316.89 C 349.84 319.18 362.45 317.61 373.35 312.29 C 373.33 303.00 373.31 293.70 373.34 284.41 C 367.76 287.52 361.36 289.60 354.91 288.88 C 351.46 288.55 348.39 286.24 346.93 283.13 C 344.31 277.82 344.53 271.72 344.51 265.95 C 344.60 250.02 344.36 234.08 344.62 218.15 C 354.17 218.34 363.73 218.35 373.28 218.80 C 373.25 209.76 373.33 200.72 373.25 191.68 C 373.48 193.82 373.44 196.24 375.26 197.74 C 393.70 216.34 412.18 234.89 430.64 253.47 C 434.82 258.00 439.75 261.87 443.35 266.91 C 435.79 275.47 427.24 283.11 419.32 291.35 C 361.84 348.85 304.32 406.32 246.85 463.83 C 245.68 465.43 243.61 464.87 242.50 463.54 C 215.57 436.80 188.73 409.97 161.82 383.22 C 159.86 381.23 157.54 379.47 156.42 376.83 C 170.52 384.07 186.98 384.98 202.48 383.33 C 213.28 382.00 224.52 378.34 231.92 369.95 C 239.83 361.09 242.00 348.56 241.24 337.05 C 240.74 329.16 236.55 321.58 229.89 317.26 C 218.02 309.19 202.87 309.22 190.30 302.80 C 182.31 299.16 182.58 285.87 190.85 282.77 C 197.02 280.51 203.77 279.87 209.54 276.50 C 228.77 266.96 238.05 242.42 231.50 222.28 C 235.23 221.36 238.90 220.20 242.52 218.89 C 242.49 209.43 242.47 199.97 242.53 190.51 C 247.90 193.93 251.42 199.51 256.56 203.26 C 257.01 240.87 257.19 278.50 256.17 316.10 C 266.61 316.13 277.04 316.12 287.48 316.12 C 286.65 292.09 286.88 268.05 286.80 244.01 C 286.99 226.57 286.66 209.11 287.45 191.67 C 280.15 185.32 273.61 178.16 266.44 171.67 C 264.76 170.06 262.48 168.78 261.92 166.34 C 266.10 168.79 271.16 170.47 275.99 169.11 C 283.80 167.23 289.52 159.92 290.68 152.14 C 291.48 147.58 290.39 142.93 288.48 138.79 Z" />
<path fill="#c9442b" opacity="1.00" d=" M 345.36 168.02 C 350.95 172.94 355.94 178.52 361.29 183.70 C 363.78 186.27 366.60 188.58 368.49 191.66 C 360.50 191.70 352.50 191.69 344.50 191.68 C 344.23 183.78 344.52 175.87 345.36 168.02 Z" />
<path fill="#c9442b" opacity="1.00" d=" M 182.33 216.46 C 188.19 214.43 195.08 216.20 199.25 220.77 C 203.53 225.34 204.95 231.88 204.64 237.98 C 204.40 242.89 203.41 248.21 199.78 251.83 C 195.94 255.69 190.08 256.47 184.90 255.86 C 180.46 255.44 175.97 253.40 173.48 249.58 C 170.14 244.46 169.87 237.98 170.58 232.08 C 171.43 225.33 175.65 218.66 182.33 216.46 Z" />
<path fill="#c9442b" opacity="1.00" d=" M 181.53 330.71 C 189.86 329.67 198.94 329.51 206.62 333.37 C 215.13 337.63 214.97 351.39 207.01 356.11 C 201.65 359.29 195.15 359.49 189.09 359.36 C 183.02 359.04 176.41 358.44 171.49 354.49 C 166.67 350.62 166.16 343.22 168.93 338.00 C 171.43 333.46 176.68 331.48 181.53 330.71 Z" />
</g>
</svg>
