<?xml version="1.0" encoding="UTF-8" ?>
<!DOCTYPE svg PUBLIC "-//W3C//DTD SVG 1.1//EN" "http://www.w3.org/Graphics/SVG/1.1/DTD/svg11.dtd">
<svg width="512pt" height="512pt" viewBox="0 0 512 512" version="1.1" xmlns="http://www.w3.org/2000/svg">
<g id="#ff5722ff">
<path fill="#ff5722" opacity="1.00" d=" M 32.00 0.00 L 480.00 0.00 C 466.37 153.61 452.76 307.23 439.12 460.84 C 378.15 477.92 317.14 494.84 256.20 512.00 L 255.91 512.00 C 194.89 494.89 133.85 477.89 72.82 460.81 C 59.20 307.21 45.61 153.60 32.00 0.00 M 115.41 94.35 C 120.64 151.26 125.50 208.20 130.64 265.12 C 195.46 265.13 260.27 265.11 325.09 265.13 C 322.92 289.57 320.74 314.00 318.56 338.44 C 297.68 344.06 276.85 349.87 255.95 355.37 C 235.07 349.92 214.28 344.08 193.44 338.47 C 192.06 322.80 190.60 307.14 189.30 291.46 C 170.55 291.22 151.79 291.49 133.03 291.33 C 135.48 321.62 138.34 351.88 140.98 382.15 C 178.32 392.61 215.68 403.01 253.01 413.49 C 254.34 413.75 255.72 414.54 257.09 413.94 C 295.06 403.36 333.02 392.75 370.99 382.16 C 376.14 324.30 381.28 266.43 386.39 208.57 C 318.29 208.60 250.19 208.47 182.09 208.63 C 179.99 189.37 178.61 170.01 176.83 150.70 C 248.39 150.67 319.96 150.71 391.53 150.68 C 393.17 131.85 394.88 113.03 396.47 94.20 C 302.79 94.32 209.09 94.03 115.41 94.35 Z" />
</g>
<g id="#fafafaff">
<path fill="#fafafa" opacity="1.00" d=" M 115.41 94.35 C 209.09 94.03 302.79 94.32 396.47 94.20 C 394.88 113.03 393.17 131.85 391.53 150.68 C 319.96 150.71 248.39 150.67 176.83 150.70 C 178.61 170.01 179.99 189.37 182.09 208.63 C 250.19 208.47 318.29 208.60 386.39 208.57 C 381.28 266.43 376.14 324.30 370.99 382.16 C 333.02 392.75 295.06 403.36 257.09 413.94 C 255.72 414.54 254.34 413.75 253.01 413.49 C 215.68 403.01 178.32 392.61 140.98 382.15 C 138.34 351.88 135.48 321.62 133.03 291.33 C 151.79 291.49 170.55 291.22 189.30 291.46 C 190.60 307.14 192.06 322.80 193.44 338.47 C 214.28 344.08 235.07 349.92 255.95 355.37 C 276.85 349.87 297.68 344.06 318.56 338.44 C 320.74 314.00 322.92 289.57 325.09 265.13 C 260.27 265.11 195.46 265.13 130.64 265.12 C 125.50 208.20 120.64 151.26 115.41 94.35 Z" />
</g>
</svg>
