<?xml version="1.0" encoding="UTF-8" ?>
<!DOCTYPE svg PUBLIC "-//W3C//DTD SVG 1.1//EN" "http://www.w3.org/Graphics/SVG/1.1/DTD/svg11.dtd">
<svg width="512pt" height="512pt" viewBox="0 0 512 512" version="1.1" xmlns="http://www.w3.org/2000/svg">
<g id="#ffdf00ff">
<path fill="#ffdf00" opacity="1.00" d=" M 0.00 0.00 L 512.00 0.00 L 512.00 512.00 L 0.00 512.00 L 0.00 0.00 M 381.10 232.73 C 363.47 234.18 345.83 241.46 334.07 254.99 C 323.33 267.10 318.33 283.67 319.35 299.72 C 319.72 315.89 325.73 332.14 337.34 343.62 C 352.89 359.46 374.27 366.99 394.13 375.78 C 402.30 379.60 410.97 383.06 417.57 389.41 C 424.43 395.91 426.05 407.14 421.53 415.39 C 417.99 421.78 411.26 425.72 404.38 427.57 C 394.02 430.22 382.83 429.65 372.75 426.10 C 360.10 421.65 350.73 411.22 343.96 400.02 C 330.89 407.54 317.88 415.15 304.85 422.72 C 315.54 444.26 335.64 460.59 358.70 467.19 C 378.92 473.02 400.76 473.49 421.17 468.38 C 437.76 464.11 453.61 454.61 462.78 439.82 C 472.75 424.13 474.01 404.37 470.32 386.54 C 467.52 373.23 459.72 361.31 449.32 352.67 C 433.96 339.73 415.08 332.23 396.84 324.37 C 388.77 320.71 380.30 317.33 373.56 311.42 C 364.44 303.53 364.15 287.31 373.63 279.59 C 380.98 273.50 391.50 273.33 400.31 275.77 C 409.72 278.54 416.03 286.73 420.65 294.91 C 433.15 286.92 445.62 278.87 458.11 270.87 C 451.42 259.11 442.30 248.36 430.36 241.69 C 415.51 233.29 397.86 231.47 381.10 232.73 M 230.72 235.07 C 230.69 290.06 230.76 345.05 230.69 400.04 C 230.52 409.00 229.04 419.57 221.04 425.03 C 213.70 429.53 204.27 429.81 196.13 427.62 C 185.17 424.21 179.31 413.48 173.97 404.18 C 160.92 412.08 147.86 419.97 134.81 427.88 C 140.67 440.25 149.49 451.38 160.95 458.97 C 175.55 468.86 193.62 472.42 211.03 471.71 C 226.94 471.24 243.36 467.11 255.88 456.87 C 266.94 447.99 273.82 434.75 276.66 421.01 C 279.41 408.86 278.76 396.34 278.83 383.98 C 278.83 334.34 278.83 284.71 278.83 235.07 C 262.79 235.06 246.75 235.06 230.72 235.07 Z" />
</g>
<g id="#000000ff">
<path fill="#000000" opacity="1.00" d=" M 381.10 232.73 C 397.86 231.47 415.51 233.29 430.36 241.69 C 442.30 248.36 451.42 259.11 458.11 270.87 C 445.62 278.87 433.15 286.92 420.65 294.91 C 416.03 286.73 409.72 278.54 400.31 275.77 C 391.50 273.33 380.98 273.50 373.63 279.59 C 364.15 287.31 364.44 303.53 373.56 311.42 C 380.30 317.33 388.77 320.71 396.84 324.37 C 415.08 332.23 433.96 339.73 449.32 352.67 C 459.72 361.31 467.52 373.23 470.32 386.54 C 474.01 404.37 472.75 424.13 462.78 439.82 C 453.61 454.61 437.76 464.11 421.17 468.38 C 400.76 473.49 378.92 473.02 358.70 467.19 C 335.64 460.59 315.54 444.26 304.85 422.72 C 317.88 415.15 330.89 407.54 343.96 400.02 C 350.73 411.22 360.10 421.65 372.75 426.10 C 382.83 429.65 394.02 430.22 404.38 427.57 C 411.26 425.72 417.99 421.78 421.53 415.39 C 426.05 407.14 424.43 395.91 417.57 389.41 C 410.97 383.06 402.30 379.60 394.13 375.78 C 374.27 366.99 352.89 359.46 337.34 343.62 C 325.73 332.14 319.72 315.89 319.35 299.72 C 318.33 283.67 323.33 267.10 334.07 254.99 C 345.83 241.46 363.47 234.18 381.10 232.73 Z" />
<path fill="#000000" opacity="1.00" d=" M 230.72 235.07 C 246.75 235.06 262.79 235.06 278.83 235.07 C 278.83 284.71 278.83 334.34 278.83 383.98 C 278.76 396.34 279.41 408.86 276.66 421.01 C 273.82 434.75 266.94 447.99 255.88 456.87 C 243.36 467.11 226.94 471.24 211.03 471.71 C 193.62 472.42 175.55 468.86 160.95 458.97 C 149.49 451.38 140.67 440.25 134.81 427.88 C 147.86 419.97 160.92 412.08 173.97 404.18 C 179.31 413.48 185.17 424.21 196.13 427.62 C 204.27 429.81 213.70 429.53 221.04 425.03 C 229.04 419.57 230.52 409.00 230.69 400.04 C 230.76 345.05 230.69 290.06 230.72 235.07 Z" />
</g>
</svg>
