<?xml version="1.0" encoding="UTF-8" ?>
<!DOCTYPE svg PUBLIC "-//W3C//DTD SVG 1.1//EN" "http://www.w3.org/Graphics/SVG/1.1/DTD/svg11.dtd">
<svg width="512pt" height="512pt" viewBox="0 0 512 512" version="1.1" xmlns="http://www.w3.org/2000/svg">
<g id="#00d9d9ff">
<path fill="#00d9d9" opacity="1.00" d=" M 254.37 0.00 L 257.53 0.00 C 277.70 0.45 296.45 10.58 310.72 24.35 C 327.92 41.08 340.17 62.11 350.19 83.73 C 373.42 80.67 397.29 79.57 420.30 84.79 C 438.28 88.95 455.84 97.76 467.43 112.47 C 476.64 123.91 481.76 138.38 482.43 153.01 C 483.52 172.66 477.81 192.01 469.76 209.72 C 462.61 226.29 452.49 241.31 442.12 256.00 C 442.51 256.57 443.29 257.70 443.68 258.27 C 438.21 259.73 432.54 259.16 426.96 259.20 C 421.69 259.16 416.33 259.74 411.20 258.21 C 411.69 257.66 412.67 256.55 413.16 256.00 C 409.70 252.10 406.22 248.22 402.76 244.32 C 396.13 236.62 388.57 229.80 381.45 222.57 C 382.07 234.75 382.54 246.94 382.45 259.13 C 375.16 259.36 367.87 259.02 360.59 259.32 C 360.16 260.26 359.75 261.22 359.36 262.18 C 359.50 241.74 358.76 221.17 356.26 200.91 C 341.35 188.89 325.69 177.82 309.57 167.49 C 301.15 162.54 292.80 157.48 284.36 152.57 C 274.91 147.60 265.37 142.79 255.88 137.88 C 246.81 142.53 237.68 147.06 228.67 151.82 C 220.30 156.71 211.92 161.59 203.60 166.57 C 195.36 172.01 187.15 177.49 178.97 183.04 C 171.01 188.97 163.12 195.00 155.20 200.99 C 153.40 220.34 152.19 239.73 152.29 259.16 C 144.70 259.21 137.10 259.23 129.51 259.14 C 129.43 246.94 129.85 234.75 130.50 222.58 C 126.81 226.20 123.15 229.85 119.47 233.48 C 112.09 240.53 105.65 248.47 98.77 256.00 C 99.26 256.55 100.24 257.65 100.72 258.20 C 94.95 259.85 88.93 259.07 83.02 259.20 C 78.05 259.18 72.95 259.80 68.16 258.12 C 68.50 257.59 69.19 256.53 69.53 256.00 C 64.14 247.63 57.85 239.84 53.14 231.03 C 44.11 216.07 37.06 199.88 32.62 182.97 C 28.48 165.94 27.88 147.53 34.10 130.92 C 39.55 115.97 50.63 103.38 64.33 95.41 C 81.95 85.00 102.73 81.52 122.93 81.16 C 135.91 80.74 148.85 82.19 161.71 83.75 C 172.09 61.47 184.72 39.67 202.88 22.79 C 216.86 9.80 235.01 0.46 254.37 0.00 M 228.85 31.84 C 208.59 45.39 195.45 66.81 184.96 88.31 C 209.27 94.22 233.02 102.32 255.87 112.50 C 278.80 102.34 302.61 94.22 326.97 88.26 C 320.56 75.10 313.29 62.28 303.97 50.95 C 293.51 38.59 280.35 27.11 264.05 23.82 C 251.79 21.20 239.11 25.07 228.85 31.84 M 87.00 110.16 C 74.81 114.55 63.36 122.63 57.49 134.47 C 51.84 145.68 51.89 158.75 53.66 170.89 C 58.10 195.22 70.41 217.22 84.41 237.28 C 99.59 219.90 116.13 203.76 133.74 188.86 C 137.41 160.56 143.91 132.66 153.01 105.61 C 131.04 103.15 108.09 102.55 87.00 110.16 M 358.93 105.79 C 367.87 132.15 374.31 159.34 377.89 186.95 C 377.74 189.22 379.85 190.36 381.29 191.70 C 397.88 205.65 413.13 221.11 427.43 237.37 C 436.84 223.74 445.50 209.45 451.54 193.98 C 457.92 177.58 461.90 159.21 457.21 141.85 C 453.67 128.67 443.31 118.27 431.03 112.84 C 408.60 102.51 382.97 102.98 358.93 105.79 M 175.91 109.86 C 169.13 128.90 163.85 148.46 160.16 168.33 C 168.48 162.63 176.79 156.90 185.09 151.18 C 198.99 142.03 213.63 134.06 228.11 125.88 C 211.14 119.25 193.66 113.96 175.91 109.86 M 283.80 125.88 C 289.46 129.40 295.47 132.33 301.27 135.61 C 318.64 145.61 335.52 156.46 351.68 168.33 C 347.98 148.46 342.72 128.89 335.93 109.85 C 318.18 113.86 300.72 119.18 283.80 125.88 Z" />
<path fill="#00d9d9" opacity="1.00" d=" M 216.95 232.92 C 223.81 221.11 236.35 212.73 249.93 211.10 C 262.77 209.22 276.32 213.37 285.98 222.03 C 296.48 231.12 302.31 245.31 301.20 259.17 C 293.52 259.46 285.79 258.64 278.16 259.73 C 279.41 251.98 276.44 243.65 270.31 238.69 C 263.87 233.24 254.27 232.00 246.63 235.57 C 237.52 239.55 232.08 250.00 233.79 259.76 C 226.15 258.61 218.42 259.52 210.74 259.08 C 210.08 250.01 212.28 240.74 216.95 232.92 Z" />
</g>
<g id="#00bfe3ff">
<path fill="#00bfe3" opacity="1.00" d=" M 32.26 330.57 C 38.73 304.12 52.22 279.99 68.16 258.12 C 72.95 259.80 78.05 259.18 83.02 259.20 C 88.93 259.07 94.95 259.85 100.72 258.20 C 110.10 269.12 120.11 279.44 130.49 289.40 C 129.97 279.32 129.55 269.24 129.51 259.14 C 137.10 259.23 144.70 259.21 152.29 259.16 C 152.58 267.43 152.68 275.71 153.04 283.98 C 153.68 292.98 154.54 301.97 155.19 310.97 C 174.42 326.02 194.31 340.32 215.54 352.44 C 228.48 360.58 242.35 367.05 255.89 374.12 C 289.26 358.29 320.86 338.75 349.97 316.02 C 352.10 314.23 354.72 312.89 356.45 310.69 C 358.16 294.58 359.10 278.39 359.36 262.18 C 359.75 261.22 360.16 260.26 360.59 259.32 C 367.87 259.02 375.16 259.36 382.45 259.13 C 382.39 269.23 381.96 279.32 381.45 289.40 C 391.82 279.44 401.83 269.13 411.20 258.21 C 416.33 259.74 421.69 259.16 426.96 259.20 C 432.54 259.16 438.21 259.73 443.68 258.27 C 452.44 270.52 460.70 283.20 467.14 296.84 C 476.97 317.32 484.20 340.05 481.80 363.03 C 480.29 378.77 473.40 394.01 462.08 405.12 C 448.31 419.07 429.06 426.20 409.99 429.10 C 390.14 432.15 369.91 430.97 350.10 428.26 C 339.58 450.92 326.68 473.08 308.03 490.04 C 294.22 502.59 276.43 511.49 257.53 512.00 L 253.80 512.00 C 239.27 511.45 225.21 506.09 213.40 497.72 C 200.63 488.93 190.52 476.93 181.68 464.34 C 173.90 452.95 167.50 440.71 161.63 428.25 C 143.90 430.63 125.88 431.92 108.05 429.92 C 91.91 428.18 75.77 423.78 61.95 415.05 C 48.95 406.77 38.53 394.21 33.55 379.56 C 28.07 363.84 28.59 346.63 32.26 330.57 M 84.31 274.51 C 70.21 294.88 57.64 317.15 53.45 341.86 C 51.72 354.03 51.94 367.10 57.77 378.21 C 63.99 390.00 75.62 398.01 88.04 402.18 C 108.85 409.31 131.34 408.76 152.92 406.26 C 143.81 379.18 137.28 351.26 133.62 322.92 C 116.02 308.02 99.49 291.87 84.31 274.51 M 395.09 308.19 C 389.77 313.47 383.70 317.94 378.38 323.19 C 376.64 333.04 375.66 343.04 373.38 352.80 C 369.95 370.97 364.71 388.71 359.09 406.30 C 368.36 407.16 377.63 408.21 386.96 407.97 C 403.69 407.70 421.01 405.24 435.71 396.77 C 446.10 391.24 454.20 381.44 457.35 370.07 C 460.82 357.27 459.41 343.64 455.97 330.99 C 450.32 310.56 439.51 292.03 427.63 274.64 C 417.30 286.31 406.55 297.62 395.09 308.19 M 160.16 343.68 C 163.86 363.55 169.13 383.11 175.91 402.16 C 193.68 398.15 211.14 392.79 228.10 386.13 C 219.27 380.76 209.91 376.31 201.20 370.72 C 187.11 362.35 173.38 353.37 160.16 343.68 M 312.61 369.66 C 303.31 375.64 293.32 380.43 283.86 386.13 C 300.84 392.75 318.31 398.04 336.06 402.15 C 342.84 383.11 348.11 363.55 351.80 343.68 C 338.79 352.41 326.22 361.84 312.61 369.66 M 184.98 423.74 C 191.12 436.21 197.86 448.47 206.63 459.31 C 215.50 470.52 226.55 480.48 239.92 485.94 C 252.39 490.91 267.05 489.67 278.54 482.77 C 285.17 479.34 291.06 474.58 296.34 469.34 C 309.53 456.37 318.95 440.19 327.02 423.69 C 302.71 417.78 278.95 409.67 256.09 399.50 C 233.16 409.66 209.34 417.77 184.98 423.74 Z" />
<path fill="#00bfe3" opacity="1.00" d=" M 210.74 259.08 C 218.42 259.52 226.15 258.61 233.79 259.76 C 235.03 266.70 239.59 273.00 245.95 276.10 C 253.24 279.79 262.52 279.07 269.10 274.20 C 273.91 270.82 277.09 265.47 278.16 259.73 C 285.79 258.64 293.52 259.46 301.20 259.17 C 300.23 280.02 282.86 298.54 262.14 300.90 C 249.27 302.78 235.66 298.71 225.98 290.00 C 217.07 282.27 211.46 270.86 210.74 259.08 Z" />
</g>
</svg>
