<?xml version="1.0" encoding="UTF-8" ?>
<!DOCTYPE svg PUBLIC "-//W3C//DTD SVG 1.1//EN" "http://www.w3.org/Graphics/SVG/1.1/DTD/svg11.dtd">
<svg width="512pt" height="512pt" viewBox="0 0 512 512" version="1.1" xmlns="http://www.w3.org/2000/svg">
<g id="#dddaecff">
<path fill="#dddaec" opacity="1.00" d=" M 200.18 0.00 L 417.63 0.00 C 436.26 0.61 453.69 13.04 460.40 30.41 C 462.65 36.31 463.78 42.60 463.74 48.90 C 463.77 108.69 463.73 168.48 463.75 228.26 C 454.36 225.83 444.62 226.60 435.03 226.48 C 419.03 226.49 403.03 226.48 387.04 226.48 C 387.02 190.99 387.02 155.50 386.99 120.01 C 386.80 107.32 381.04 94.94 371.82 86.29 C 363.85 78.60 353.02 74.18 342.04 73.36 C 336.04 73.10 330.03 73.28 324.02 73.21 C 267.06 73.30 210.09 73.10 153.13 73.30 C 153.79 58.64 150.95 43.20 156.94 29.30 C 164.01 12.17 181.66 0.25 200.18 0.00 Z" />
</g>
<g id="#df8621ff">
<path fill="#df8621" opacity="1.00" d=" M 20.93 45.95 C 32.25 35.46 47.53 29.32 62.99 29.35 C 94.31 29.28 125.62 29.39 156.94 29.30 C 150.95 43.20 153.79 58.64 153.13 73.30 C 142.87 73.43 132.61 73.21 122.36 73.41 C 106.86 73.94 91.99 82.64 83.81 95.80 C 77.80 105.02 75.86 116.26 76.43 127.12 C 65.89 127.44 55.11 126.62 44.93 129.99 C 26.79 135.68 11.28 149.71 4.77 167.68 C 3.37 171.22 2.91 175.14 0.81 178.39 C 0.68 149.61 0.78 120.84 0.75 92.06 C 0.57 74.75 8.15 57.60 20.93 45.95 Z" />
<path fill="#df8621" opacity="1.00" d=" M 460.40 30.41 C 483.27 34.60 502.82 52.57 508.92 75.00 C 512.31 86.37 510.98 98.34 511.25 110.02 C 511.21 166.47 511.33 222.92 511.19 279.37 C 509.83 276.33 509.29 273.04 508.23 269.91 C 501.81 249.66 484.48 233.18 463.75 228.26 C 463.73 168.48 463.77 108.69 463.74 48.90 C 463.78 42.60 462.65 36.31 460.40 30.41 Z" />
</g>
<g id="#f1f4f6ff">
<path fill="#f1f4f6" opacity="1.00" d=" M 122.36 73.41 C 132.61 73.21 142.87 73.43 153.13 73.30 C 210.09 73.10 267.06 73.30 324.02 73.21 C 330.03 73.28 336.04 73.10 342.04 73.36 C 353.02 74.18 363.85 78.60 371.82 86.29 C 381.04 94.94 386.80 107.32 386.99 120.01 C 387.02 155.50 387.02 190.99 387.04 226.48 C 364.02 226.46 341.01 226.52 318.00 226.45 C 300.25 226.40 282.76 218.27 271.21 204.82 C 267.87 201.03 265.23 196.71 262.46 192.51 C 254.78 180.86 247.13 169.19 239.48 157.53 C 228.73 139.77 208.86 127.91 188.05 127.44 C 163.06 127.35 138.06 127.45 113.07 127.39 C 100.87 126.89 88.65 127.13 76.43 127.12 C 75.86 116.26 77.80 105.02 83.81 95.80 C 91.99 82.64 106.86 73.94 122.36 73.41 M 344.44 123.43 C 334.78 141.07 325.74 159.07 315.92 176.62 C 310.26 170.36 305.28 163.50 299.87 157.01 C 297.25 153.86 294.75 149.33 289.97 149.75 C 284.06 149.74 280.36 157.43 284.11 162.01 C 293.09 173.33 302.21 184.54 311.25 195.81 C 314.31 199.91 321.44 199.41 323.82 194.86 C 335.22 173.85 346.25 152.64 357.57 131.58 C 359.66 128.31 358.91 123.51 355.69 121.23 C 352.27 118.42 346.55 119.54 344.44 123.43 Z" />
</g>
<g id="#b3e59fff">
<path fill="#b3e59f" opacity="1.00" d=" M 344.44 123.43 C 346.55 119.54 352.27 118.42 355.69 121.23 C 358.91 123.51 359.66 128.31 357.57 131.58 C 346.25 152.64 335.22 173.85 323.82 194.86 C 321.44 199.41 314.31 199.91 311.25 195.81 C 302.21 184.54 293.09 173.33 284.11 162.01 C 280.36 157.43 284.06 149.74 289.97 149.75 C 294.75 149.33 297.25 153.86 299.87 157.01 C 305.28 163.50 310.26 170.36 315.92 176.62 C 325.74 159.07 334.78 141.07 344.44 123.43 Z" />
</g>
<g id="#e7a42dff">
<path fill="#e7a42d" opacity="1.00" d=" M 44.93 129.99 C 55.11 126.62 65.89 127.44 76.43 127.12 C 88.65 127.13 100.87 126.89 113.07 127.39 C 138.06 127.45 163.06 127.35 188.05 127.44 C 208.86 127.91 228.73 139.77 239.48 157.53 C 247.13 169.19 254.78 180.86 262.46 192.51 C 265.23 196.71 267.87 201.03 271.21 204.82 C 282.76 218.27 300.25 226.40 318.00 226.45 C 341.01 226.52 364.02 226.46 387.04 226.48 C 403.03 226.48 419.03 226.49 435.03 226.48 C 444.62 226.60 454.36 225.83 463.75 228.26 C 484.48 233.18 501.81 249.66 508.23 269.91 C 509.29 273.04 509.83 276.33 511.19 279.37 C 511.68 308.90 511.41 338.45 511.25 367.98 C 511.24 395.32 511.27 422.65 511.24 449.99 C 511.19 467.20 503.51 484.17 490.75 495.70 C 480.16 505.45 466.10 511.16 451.76 512.00 L 56.53 512.00 C 43.48 510.17 30.82 504.81 21.13 495.77 C 8.58 484.45 0.87 467.90 0.63 450.97 C 0.41 381.32 0.77 311.66 0.43 242.01 C 0.57 220.81 0.10 199.59 0.81 178.39 C 2.91 175.14 3.37 171.22 4.77 167.68 C 11.28 149.71 26.79 135.68 44.93 129.99 M 58.46 266.60 C 54.57 267.70 51.70 271.92 52.82 275.96 C 53.58 279.66 57.31 282.13 60.99 281.92 C 104.33 281.95 147.67 281.94 191.01 281.92 C 195.19 282.43 199.41 279.26 199.77 275.02 C 200.40 270.60 196.49 266.27 192.04 266.44 C 147.51 266.55 102.97 266.23 58.46 266.60 M 58.19 295.37 C 54.55 296.28 52.06 300.25 52.69 303.93 C 53.24 307.83 57.03 310.83 60.96 310.46 C 104.64 310.45 148.32 310.46 191.99 310.45 C 195.76 310.65 199.22 307.65 199.72 303.96 C 200.57 299.42 196.68 294.77 192.01 295.08 C 149.66 295.04 107.31 295.08 64.96 295.06 C 62.71 295.10 60.41 294.87 58.19 295.37 Z" />
</g>
<g id="#ffe07dff">
<path fill="#ffe07d" opacity="1.00" d=" M 58.46 266.60 C 102.97 266.23 147.51 266.55 192.04 266.44 C 196.49 266.27 200.40 270.60 199.77 275.02 C 199.41 279.26 195.19 282.43 191.01 281.92 C 147.67 281.94 104.33 281.95 60.99 281.92 C 57.31 282.13 53.58 279.66 52.82 275.96 C 51.70 271.92 54.57 267.70 58.46 266.60 Z" />
<path fill="#ffe07d" opacity="1.00" d=" M 58.19 295.37 C 60.41 294.87 62.71 295.10 64.96 295.06 C 107.31 295.08 149.66 295.04 192.01 295.08 C 196.68 294.77 200.57 299.42 199.72 303.96 C 199.22 307.65 195.76 310.65 191.99 310.45 C 148.32 310.46 104.64 310.45 60.96 310.46 C 57.03 310.83 53.24 307.83 52.69 303.93 C 52.06 300.25 54.55 296.28 58.19 295.37 Z" />
</g>
</svg>
